<?xml version="1.0" encoding="UTF-8" standalone="no"?>
<!-- Created with Inkscape (http://www.inkscape.org/) -->

<svg
   xmlns:dc="http://purl.org/dc/elements/1.1/"
   xmlns:cc="http://creativecommons.org/ns#"
   xmlns:rdf="http://www.w3.org/1999/02/22-rdf-syntax-ns#"
   xmlns:svg="http://www.w3.org/2000/svg"
   xmlns="http://www.w3.org/2000/svg"
   xmlns:sodipodi="http://sodipodi.sourceforge.net/DTD/sodipodi-0.dtd"
   xmlns:inkscape="http://www.inkscape.org/namespaces/inkscape"
   version="1.1"
   id="svg5274"
   xml:space="preserve"
   width="666.66669"
   height="666.65332"
   viewBox="0 0 666.66669 666.65332"
   sodipodi:docname="plugin-draw-logo.svg"
   inkscape:export-filename="/home/jespino/plugin-draw-logo.png"
   inkscape:export-xdpi="302"
   inkscape:export-ydpi="302"
   inkscape:version="0.92.4 5da689c313, 2019-01-14"><metadata
     id="metadata5280"><rdf:RDF><cc:Work
         rdf:about=""><dc:format>image/svg+xml</dc:format><dc:type
           rdf:resource="http://purl.org/dc/dcmitype/StillImage" /><dc:title /></cc:Work></rdf:RDF></metadata><defs
     id="defs5278"><linearGradient
       id="b"
       x1="279.92001"
       x2="298.98999"
       y1="487.98999"
       y2="508.32001"
       gradientUnits="userSpaceOnUse"><stop
         stop-color="#f09092"
         offset="0"
         id="stop7076" /><stop
         stop-color="#f2acac"
         offset=".25"
         id="stop7078" /><stop
         stop-color="#f5c8c7"
         offset=".5"
         id="stop7080" /><stop
         stop-color="#cf8885"
         offset=".75"
         id="stop7082" /><stop
         stop-color="#aa4944"
         offset="1"
         id="stop7084" /></linearGradient><linearGradient
       id="a"
       x1="235.89"
       x2="247.02"
       y1="538.62"
       y2="549.69"
       gradientUnits="userSpaceOnUse"><stop
         stop-color="#ddb090"
         offset="0"
         id="stop7087" /><stop
         stop-color="#ebd1bf"
         offset=".5"
         id="stop7089" /><stop
         stop-color="#ce8d60"
         offset="1"
         id="stop7091" /></linearGradient></defs><sodipodi:namedview
     pagecolor="#ffffff"
     bordercolor="#666666"
     borderopacity="1"
     objecttolerance="10"
     gridtolerance="10"
     guidetolerance="10"
     inkscape:pageopacity="0"
     inkscape:pageshadow="2"
     inkscape:window-width="2556"
     inkscape:window-height="1391"
     id="namedview5276"
     showgrid="false"
     inkscape:zoom="0.50064162"
     inkscape:cx="-1402.3555"
     inkscape:cy="201.25979"
     inkscape:window-x="2560"
     inkscape:window-y="47"
     inkscape:window-maximized="0"
     inkscape:current-layer="g5282" /><g
     id="g5282"
     inkscape:groupmode="layer"
     inkscape:label="ink_ext_XXXXXX"
     transform="matrix(1.3333333,0,0,-1.3333333,0,666.65333)"><path
       inkscape:connector-curvature="0"
       id="path5286"
       style="fill:none;fill-opacity:1;fill-rule:evenodd;stroke:#000000;stroke-width:3.75;stroke-miterlimit:4;stroke-dasharray:none"
       d="m 396.909,452.279 2.631,-53.063 C 442.56,351.692 459.539,284.387 438.125,221.13 406.16,126.703 300.754,77.0648 202.695,110.261 104.636,143.456 51.057,246.914 83.0227,341.342 104.508,404.809 159.171,448.041 222.48,459.489 l 34.205,40.414 C 149.969,502.792 49.2879,436.552 13.2648,330.141 -14.532747,248.02737 -7.2814967,184.8303 37.596492,117.69862 M 73.612721,70.559732 C 102.70094,32.68344 121.22767,29.728088 169.859,13.2648 300.604,-30.9949 442.475,39.1141 486.735,169.859 522.7,276.101 483.148,389.687 396.909,452.279"
       sodipodi:nodetypes="ccccccccccccc" /><path
       inkscape:connector-curvature="0"
       id="path5288"
       style="fill:none;fill-opacity:1;fill-rule:evenodd;stroke:#000000;stroke-width:3.75000009;stroke-miterlimit:4;stroke-dasharray:none"
       d="m 335.623,295.706 -1.812,74.181 -1.453,42.685 -0.983,36.98 c 0,0 0.206,17.832 -0.417,22.022 -0.131,0.882 -0.409,1.599 -0.738,2.226 l -0.126,0.262 -0.142,0.229 c -0.684,1.177 -1.759,2.133 -3.15,2.604 -1.423,0.482 -2.894,0.363 -4.173,-0.189 l -0.079,-0.03 c -0.152,-0.069 -0.297,-0.146 -0.443,-0.226 -0.606,-0.295 -1.222,-0.677 -1.825,-1.262 -3.04,-2.95 -13.709,-17.24 -13.709,-17.24 L 283.33,429.169 256.247,396.144 209.748,338.318 c 0,0 -21.338,-26.631 -16.623,-59.411 4.715,-32.78 29.085,-48.749 47.991,-55.15 18.906,-6.4 47.966,-8.518 71.623,14.658 23.657,23.175 22.884,57.291 22.884,57.291" /><g
       id="g4643"
       transform="matrix(-11.555325,0.04380299,0.04380299,11.555325,364.39893,-25.214387)" /><g
       id="g4645"
       transform="matrix(-11.555325,0.04380299,0.04380299,11.555325,364.39893,-25.214387)" /><g
       id="g4647"
       transform="matrix(-11.555325,0.04380299,0.04380299,11.555325,364.39893,-25.214387)" /><g
       id="g4649"
       transform="matrix(-11.555325,0.04380299,0.04380299,11.555325,364.39893,-25.214387)" /><g
       id="g4651"
       transform="matrix(-11.555325,0.04380299,0.04380299,11.555325,364.39893,-25.214387)" /><g
       id="g4653"
       transform="matrix(-11.555325,0.04380299,0.04380299,11.555325,364.39893,-25.214387)" /><g
       id="g4655"
       transform="matrix(-11.555325,0.04380299,0.04380299,11.555325,364.39893,-25.214387)" /><g
       id="g4657"
       transform="matrix(-11.555325,0.04380299,0.04380299,11.555325,364.39893,-25.214387)" /><g
       id="g4659"
       transform="matrix(-11.555325,0.04380299,0.04380299,11.555325,364.39893,-25.214387)" /><g
       id="g4661"
       transform="matrix(-11.555325,0.04380299,0.04380299,11.555325,364.39893,-25.214387)" /><g
       id="g4663"
       transform="matrix(-11.555325,0.04380299,0.04380299,11.555325,364.39893,-25.214387)" /><g
       id="g4665"
       transform="matrix(-11.555325,0.04380299,0.04380299,11.555325,364.39893,-25.214387)" /><g
       id="g4667"
       transform="matrix(-11.555325,0.04380299,0.04380299,11.555325,364.39893,-25.214387)" /><g
       id="g4669"
       transform="matrix(-11.555325,0.04380299,0.04380299,11.555325,364.39893,-25.214387)" /><g
       id="g4671"
       transform="matrix(-11.555325,0.04380299,0.04380299,11.555325,364.39893,-25.214387)" /><g
       transform="matrix(0.75000002,0,0,-0.75000002,-312.4088,939.51454)"
       id="g4675" /><g
       transform="matrix(0.75000002,0,0,-0.75000002,-312.4088,939.51454)"
       id="g4677" /><g
       transform="matrix(0.75000002,0,0,-0.75000002,-312.4088,939.51454)"
       id="g4679" /><g
       transform="matrix(0.75000002,0,0,-0.75000002,-312.4088,939.51454)"
       id="g4681" /><g
       transform="matrix(0.75000002,0,0,-0.75000002,-312.4088,939.51454)"
       id="g4683" /><g
       transform="matrix(0.75000002,0,0,-0.75000002,-312.4088,939.51454)"
       id="g4685" /><g
       transform="matrix(0.75000002,0,0,-0.75000002,-312.4088,939.51454)"
       id="g4687" /><g
       transform="matrix(0.75000002,0,0,-0.75000002,-312.4088,939.51454)"
       id="g4689" /><g
       transform="matrix(0.75000002,0,0,-0.75000002,-312.4088,939.51454)"
       id="g4691" /><g
       transform="matrix(0.75000002,0,0,-0.75000002,-312.4088,939.51454)"
       id="g4693" /><g
       transform="matrix(0.75000002,0,0,-0.75000002,-312.4088,939.51454)"
       id="g4695" /><g
       transform="matrix(0.75000002,0,0,-0.75000002,-312.4088,939.51454)"
       id="g4697" /><g
       transform="matrix(0.75000002,0,0,-0.75000002,-312.4088,939.51454)"
       id="g4699" /><g
       transform="matrix(0.75000002,0,0,-0.75000002,-312.4088,939.51454)"
       id="g4701" /><g
       transform="matrix(0.75000002,0,0,-0.75000002,-312.4088,939.51454)"
       id="g4703" /><g
       transform="matrix(1.7736656,0,0,-1.7736656,71.477807,478.2991)"
       id="g6129" /><g
       transform="matrix(1.7736656,0,0,-1.7736656,71.477807,478.2991)"
       id="g6131" /><g
       transform="matrix(1.7736656,0,0,-1.7736656,71.477807,478.2991)"
       id="g6133" /><g
       transform="matrix(1.7736656,0,0,-1.7736656,71.477807,478.2991)"
       id="g6135" /><g
       transform="matrix(1.7736656,0,0,-1.7736656,71.477807,478.2991)"
       id="g6137" /><g
       transform="matrix(1.7736656,0,0,-1.7736656,71.477807,478.2991)"
       id="g6139" /><g
       transform="matrix(1.7736656,0,0,-1.7736656,71.477807,478.2991)"
       id="g6141" /><g
       transform="matrix(1.7736656,0,0,-1.7736656,71.477807,478.2991)"
       id="g6143" /><g
       transform="matrix(1.7736656,0,0,-1.7736656,71.477807,478.2991)"
       id="g6145" /><g
       transform="matrix(1.7736656,0,0,-1.7736656,71.477807,478.2991)"
       id="g6147" /><g
       transform="matrix(1.7736656,0,0,-1.7736656,71.477807,478.2991)"
       id="g6149" /><g
       transform="matrix(1.7736656,0,0,-1.7736656,71.477807,478.2991)"
       id="g6151" /><g
       transform="matrix(1.7736656,0,0,-1.7736656,71.477807,478.2991)"
       id="g6153" /><g
       transform="matrix(1.7736656,0,0,-1.7736656,71.477807,478.2991)"
       id="g6155" /><g
       transform="matrix(1.7736656,0,0,-1.7736656,71.477807,478.2991)"
       id="g6157" /><g
       transform="matrix(4.7456455,0,0,-4.7456455,-1015.9032,2704.2312)"
       id="g7118"><path
         style="fill:url(#b);stroke:#000000"
         inkscape:connector-curvature="0"
         d="m 229.76,555.4 3.2561,-9.2703 6.923,-19.71 c 0,0 42.261,-41.677 44.49,-42.78 2.229,-1.103 4.573,0.56973 4.573,0.56973 0,0 4.6354,2.0837 8.8807,6.9637 4.2453,4.88 6.3782,7.5724 6.23,10.106 -0.1482,2.5336 -44.48,43.032 -44.48,43.032 l -19.735,7.3258 -10.138,3.7632 z"
         id="path7096" /><path
         style="fill:#fba635;stroke:#000000"
         inkscape:connector-curvature="0"
         d="m 238.94,529.62 0.38756,3.2698 7.1132,-2.1889 1.3838,9.042 7.9794,0.42929 0.7179,5.1518 3.1176,-1.0132 18.5,-17.192 c 0,0 -3.9188,-6.1573 -9.3203,-11.495 -5.3588,-5.2956 -9.8054,-7.9366 -9.8054,-7.9366 l -19.069,18.732 -1.0054,3.2009 z"
         id="path7098" /><path
         style="fill:#f5b25f"
         inkscape:connector-curvature="0"
         d="m 246.44,530.7 19.09,-18.227 c 0,0 1.1615,0.58399 4.7343,4.4807 3.5728,3.89671 4.7759,5.49 4.7759,5.49 l -19.237,17.728 -7.9794,-0.42929 -1.3838,-9.042 z"
         id="path7100" /><path
         style="fill:#b54d0e"
         inkscape:connector-curvature="0"
         d="m 256.52,545.32 3.1176,-1.0132 18.5,-17.192 -3.0994,-4.6745 -19.237,17.728 0.7179,5.1518 z"
         id="path7102" /><path
         inkscape:connector-curvature="0"
         d="m 233.35,545.72 6.2295,5.8246 -9.8159,3.8538 3.5863,-9.6784 z"
         id="path7104" /><path
         style="fill:none;stroke:#000000"
         inkscape:connector-curvature="0"
         d="m 238.94,529.62 0.38756,3.2698 7.1132,-2.1889 1.3838,9.042 7.9794,0.42929 0.7179,5.1518 3.1176,-1.0132 18.5,-17.192 c 0,0 -3.9188,-6.1573 -9.3203,-11.495 -5.3588,-5.2956 -9.8054,-7.9366 -9.8054,-7.9366 l -19.069,18.732 -1.0054,3.2009 z"
         id="path7106" /><path
         style="fill:url(#a);stroke:#000000"
         inkscape:connector-curvature="0"
         d="m 233.35,545.72 6.2295,5.8246 16.94,-6.2219 -0.7179,-5.1518 -7.9794,-0.42929 -1.3838,-9.042 -7.1132,2.1889 -0.38756,-3.2698 -5.5873,16.101 z"
         id="path7108" /><path
         style="fill:#7e5f56"
         inkscape:connector-curvature="0"
         d="m 273.13,494.59 c 0,0 6.4173,2.3893 10.652,7.017 4.2347,4.6277 8.9574,11.889 8.9574,11.889 l -14.604,13.619 c 0,0 -6.3353,-9.5962 -9.4724,-12.121 -3.1371,-2.5248 -9.6533,-7.311 -9.6533,-7.311 l 14.12,-13.093 z"
         id="path7110" /><path
         style="fill:#d6c8c6"
         inkscape:connector-curvature="0"
         d="m 259.01,507.69 6.5161,4.7864 14.588,-13.997 -6.9844,-3.8825 -14.12,13.093"
         id="path7112" /><path
         style="fill:#ece4e2"
         inkscape:connector-curvature="0"
         d="m 265.53,512.47 3.8736,3.2765 5.6365,6.6943 14.372,-13.104 c 0,0 -1.6856,-4.1009 -3.6664,-6.1677 -1.9808,-2.0668 -5.6278,-4.6966 -5.6278,-4.6966"
         id="path7114" /><path
         style="fill:none;stroke:#000000"
         inkscape:connector-curvature="0"
         d="m 273.13,494.59 c 0,0 6.4173,2.3893 10.652,7.017 4.2347,4.6277 8.9574,11.889 8.9574,11.889 l -14.604,13.619 c 0,0 -5.7015,-8.2713 -8.7359,-11.369 -2.8179,-2.8765 -10.39,-8.0629 -10.39,-8.0629 l 14.12,-13.093 z"
         id="path7116" /></g></g></svg>